<?xml version="1.0" encoding="UTF-8"?>
<!DOCTYPE svg PUBLIC "-//W3C//DTD SVG 1.1//EN" "http://www.w3.org/Graphics/SVG/1.1/DTD/svg11.dtd">
<!-- Creator: CorelDRAW 2019 (64-Bit) -->
<svg xmlns="http://www.w3.org/2000/svg" xml:space="preserve" width="136px" height="192px" version="1.1" style="shape-rendering:geometricPrecision; text-rendering:geometricPrecision; image-rendering:optimizeQuality; fill-rule:evenodd; clip-rule:evenodd"
viewBox="0 0 136 192.34"
 xmlns:xlink="http://www.w3.org/1999/xlink"
 xmlns:xodm="http://www.corel.com/coreldraw/odm/2003">
 <defs>
  <style type="text/css">
   <![CDATA[
    .str0 {stroke:#2B2A29;stroke-width:0.13;stroke-miterlimit:22.9256}
    .fil0 {fill:#2B2A29}
    .fil1 {fill:#2B2A29}
   ]]>
  </style>
 </defs>
 <g id="Слой_x0020_1">
  <metadata id="CorelCorpID_0Corel-Layer"/>
  <polygon class="fil0 str0" points="436.62,57.66 445.18,57.64 446.73,61.24 451.48,61.24 441.93,39.57 437.42,39.57 430.2,55.38 434.72,55.38 439.71,43.07 443.78,54.04 438.06,54.06 "/>
  <polygon class="fil0" points="423.1,56.76 432.69,56.76 432.69,61.28 418.28,61.28 418.28,39.53 423.1,39.53 "/>
  <path class="fil1 str0" d="M419.03 66.25c4.06,4.05 9.66,6.56 15.85,6.56 12.37,0 22.41,-10.03 22.41,-22.41 0,-12.37 -10.04,-22.4 -22.41,-22.4 -6.19,0 -11.79,2.51 -15.85,6.56l1.8 1.79c3.59,-3.6 8.56,-5.82 14.05,-5.82 10.98,0 19.87,8.9 19.87,19.87 0,10.98 -8.89,19.88 -19.87,19.88 -5.49,0 -10.46,-2.23 -14.05,-5.82l-1.8 1.79z"/>
 </g>
</svg>
